<svg width="175" height="32" viewBox="0 0 175 32" fill="none" xmlns="http://www.w3.org/2000/svg">
<path opacity="0.4" fill-rule="evenodd" clip-rule="evenodd" d="M151.669 28.4545C149.644 28.4545 148 26.8655 148 24.9091C148 23.6106 148.727 22.4532 149.838 21.835C149.838 21.4764 149.833 17.2256 149.833 17.2256C149.833 13.1418 152.669 9.70365 156.556 8.6765V8.36364C156.556 7.05824 157.65 6 159 6C160.35 6 161.444 7.05824 161.444 8.36364V8.6765C165.332 9.70344 168.167 13.1419 168.167 17.2318V21.8454C169.279 22.4664 170 23.619 170 24.9091C170 26.8681 168.359 28.4545 166.331 28.4545H162.667C162.665 30.413 161.02 32 159 32C156.975 32 155.333 30.4143 155.333 28.4571L151.669 28.4545ZM157.778 28.4545C157.778 29.1083 158.324 29.6364 159 29.6364C159.671 29.6364 160.22 29.1064 160.222 28.4545H157.778ZM165.722 17.2318V22.9427C165.722 23.2702 165.992 23.6032 166.318 23.6847L166.639 23.7648C167.173 23.8984 167.556 24.3689 167.556 24.9091C167.556 25.5624 167.009 26.0909 166.331 26.0909H151.669C150.994 26.0909 150.444 25.56 150.444 24.9091C150.444 24.3666 150.825 23.8979 151.36 23.7647L151.692 23.6823C152.015 23.6017 152.278 23.2732 152.278 22.9426V17.2256C152.278 13.6364 155.287 10.7273 159 10.7273C162.715 10.7273 165.722 13.6354 165.722 17.2318Z" fill="white"/>
<path opacity="0.4" fill-rule="evenodd" clip-rule="evenodd" d="M77 11.5C77 12.8807 78.1193 14 79.5 14C80.8807 14 82 12.8807 82 11.5C82 10.1193 80.8807 9 79.5 9C78.1193 9 77 10.1193 77 11.5ZM79.5 22C78.1193 22 77 20.8807 77 19.5C77 18.1193 78.1193 17 79.5 17C80.8807 17 82 18.1193 82 19.5C82 20.8807 80.8807 22 79.5 22ZM79.5 30C78.1193 30 77 28.8807 77 27.5C77 26.1193 78.1193 25 79.5 25C80.8807 25 82 26.1193 82 27.5C82 28.8807 80.8807 30 79.5 30ZM87.5 30C86.1193 30 85 28.8807 85 27.5C85 26.1193 86.1193 25 87.5 25C88.8807 25 90 26.1193 90 27.5C90 28.8807 88.8807 30 87.5 30ZM93 27.5C93 28.8807 94.1193 30 95.5 30C96.8807 30 98 28.8807 98 27.5C98 26.1193 96.8807 25 95.5 25C94.1193 25 93 26.1193 93 27.5ZM87.5 22C86.1193 22 85 20.8807 85 19.5C85 18.1193 86.1193 17 87.5 17C88.8807 17 90 18.1193 90 19.5C90 20.8807 88.8807 22 87.5 22ZM85 11.5C85 12.8807 86.1193 14 87.5 14C88.8807 14 90 12.8807 90 11.5C90 10.1193 88.8807 9 87.5 9C86.1193 9 85 10.1193 85 11.5ZM95.5 22C94.1193 22 93 20.8807 93 19.5C93 18.1193 94.1193 17 95.5 17C96.8807 17 98 18.1193 98 19.5C98 20.8807 96.8807 22 95.5 22ZM93 11.5C93 12.8807 94.1193 14 95.5 14C96.8807 14 98 12.8807 98 11.5C98 10.1193 96.8807 9 95.5 9C94.1193 9 93 10.1193 93 11.5Z" fill="white"/>
<path d="M166 18C170.971 18 175 13.9706 175 9C175 4.02944 170.971 0 166 0C161.029 0 157 4.02944 157 9C157 13.9706 161.029 18 166 18Z" fill="#FF0000"/>
<path d="M167.92 8.608C168.424 8.744 168.808 8.992 169.072 9.352C169.344 9.712 169.48 10.156 169.48 10.684C169.48 11.428 169.204 12.016 168.652 12.448C168.108 12.88 167.372 13.096 166.444 13.096C165.868 13.096 165.312 13.008 164.776 12.832C164.248 12.656 163.812 12.412 163.468 12.1L163.996 10.972C164.756 11.564 165.552 11.86 166.384 11.86C166.928 11.86 167.332 11.752 167.596 11.536C167.868 11.32 168.004 10.992 168.004 10.552C168.004 10.12 167.868 9.804 167.596 9.604C167.324 9.396 166.904 9.292 166.336 9.292H165.208V8.056H166.132C167.236 8.056 167.788 7.636 167.788 6.796C167.788 6.404 167.668 6.104 167.428 5.896C167.188 5.688 166.852 5.584 166.42 5.584C165.652 5.584 164.884 5.88 164.116 6.472L163.6 5.344C163.944 5.04 164.376 4.8 164.896 4.624C165.424 4.44 165.964 4.348 166.516 4.348C167.356 4.348 168.024 4.556 168.52 4.972C169.024 5.38 169.276 5.928 169.276 6.616C169.268 7.088 169.144 7.5 168.904 7.852C168.672 8.196 168.344 8.448 167.92 8.608Z" fill="white"/>
<path opacity="0.4" fill-rule="evenodd" clip-rule="evenodd" d="M22.2082 11.8677L18.4091 14.6818V11.5027C18.4091 10.1181 17.3104 9 15.955 9H2.4541C1.09644 9 0 10.1205 0 11.5027V26.4973C0 27.8819 1.09874 29 2.4541 29H15.955C17.3126 29 18.4091 27.8795 18.4091 26.4973V23.3182L22.2082 26.1323C22.48 26.3336 22.9801 26.5 23.32 26.5H25.7691C26.456 26.5 27 25.939 27 25.2469V12.7531C27 12.0606 26.4489 11.5 25.7691 11.5H23.32C22.9732 11.5 22.4823 11.6646 22.2082 11.8677ZM2.45455 26.5V11.5H15.9545V26.5H2.45455ZM4.90909 22.75C4.90909 22.0596 5.45956 21.5 6.13996 21.5H12.2691C12.9489 21.5 13.5 22.0548 13.5 22.75C13.5 23.4404 12.9495 24 12.2691 24H6.13996C5.46017 24 4.90909 23.4452 4.90909 22.75ZM23.5108 23.9998L18.424 20.238L18.4243 17.7618L23.5073 13.9966L24.5455 13.9982V23.9988L23.5108 23.9998Z" fill="white"/>
</svg>
